<svg width="25" height="27" fill="none" xmlns="http://www.w3.org/2000/svg"><mask id="a" fill="#fff"><path fill-rule="evenodd" clip-rule="evenodd" d="M17.422 24.058a1.058 1.058 0 0 1 1.216.196l1.826 1.875a.682.682 0 0 0 .977-.95l-1.357-1.394c-.426-.438-.361-1.15.098-1.552 2.642-2.314 4.318-5.764 4.318-9.619C24.5 5.648 19.023 0 12.268 0 5.512 0 .036 5.648.036 12.614c0 3.815 1.641 7.234 4.236 9.547.452.403.513 1.11.09 1.544l-1.434 1.473a.682.682 0 1 0 .976.951l1.88-1.93a1.058 1.058 0 0 1 1.226-.191 11.878 11.878 0 0 0 5.258 1.221c1.841 0 3.587-.42 5.154-1.17zm-5.154-.23c6.005 0 10.873-5.02 10.873-11.213S18.273 1.402 12.268 1.402c-6.005 0-10.873 5.02-10.873 11.213 0 6.192 4.868 11.212 10.873 11.212zm-.76-11.53V4.94a.781.781 0 1 1 1.563 0v8.183c0 .443-.36.803-.803.803a.76.76 0 0 1-.76-.76V12.298z"/></mask><path fill-rule="evenodd" clip-rule="evenodd" d="M17.422 24.058a1.058 1.058 0 0 1 1.216.196l1.826 1.875a.682.682 0 0 0 .977-.95l-1.357-1.394c-.426-.438-.361-1.15.098-1.552 2.642-2.314 4.318-5.764 4.318-9.619C24.5 5.648 19.023 0 12.268 0 5.512 0 .036 5.648.036 12.614c0 3.815 1.641 7.234 4.236 9.547.452.403.513 1.11.09 1.544l-1.434 1.473a.682.682 0 1 0 .976.951l1.88-1.93a1.058 1.058 0 0 1 1.226-.191 11.878 11.878 0 0 0 5.258 1.221c1.841 0 3.587-.42 5.154-1.17zm-5.154-.23c6.005 0 10.873-5.02 10.873-11.213S18.273 1.402 12.268 1.402c-6.005 0-10.873 5.02-10.873 11.213 0 6.192 4.868 11.212 10.873 11.212zm-.76-11.53V4.94a.781.781 0 1 1 1.563 0v8.183c0 .443-.36.803-.803.803a.76.76 0 0 1-.76-.76V12.298z" fill="#fff"/><path d="m5.784 24.199 2.866 2.79-2.866-2.79zm1.226-.191 1.765-3.59-1.765 3.59zm-3.106 2.121L1.04 23.34l2.865 2.79zm-.976-.95 2.865 2.79-2.865-2.79zm17.156-1.394-2.865 2.79 2.865-2.79zm.098-1.552-2.635-3.009 2.635 3.01zm-15.91-.072L1.61 25.146l2.662-2.985zm.09 1.544-2.866-2.79 2.866 2.79zm17.079 1.473 2.866-2.79-2.866 2.79zm-.977.951 2.866-2.79-2.866 2.79zm-1.825-1.875-2.866 2.79 2.866-2.79zm-1.217-.196-1.73-3.606 1.73 3.606zm-1.65 2.987L17.6 28.92l5.731-5.582-1.826-1.874-5.731 5.58zm8.535-4.658-1.357-1.393-5.731 5.582 1.356 1.393 5.732-5.582zm-1.49 2.855c3.49-3.056 5.683-7.595 5.683-12.628h-8c0 2.677-1.16 5.04-2.953 6.61l5.27 6.018zM28.5 12.614C28.5 3.556 21.348-4 12.268-4v8c4.431 0 8.232 3.74 8.232 8.614h8zM12.268-4C3.188-4-3.964 3.556-3.964 12.614h8C4.036 7.74 7.836 4 12.268 4v-8zM-3.964 12.614c0 4.98 2.147 9.477 5.574 12.532l5.324-5.97c-1.762-1.572-2.898-3.913-2.898-6.561h-8zm5.46 8.3L.062 22.388l5.731 5.582 1.434-1.473-5.73-5.581zM6.77 28.92l1.88-1.93-5.732-5.582-1.88 1.93L6.77 28.92zm-1.525-1.323a15.878 15.878 0 0 0 7.023 1.632v-8a7.879 7.879 0 0 1-3.493-.811l-3.53 7.18zm7.023 1.632c2.456 0 4.792-.56 6.884-1.564l-3.46-7.213c-1.041.499-2.198.777-3.424.777v8zm0-1.402c8.33 0 14.873-6.928 14.873-15.213h-8c0 4.101-3.192 7.213-6.873 7.213v8zM27.14 12.614c0-8.284-6.544-15.212-14.873-15.212v8c3.68 0 6.873 3.112 6.873 7.212h8zM12.268-2.598c-8.33 0-14.873 6.928-14.873 15.212h8c0-4.1 3.192-7.212 6.873-7.212v-8zM-2.605 12.614c0 8.285 6.544 15.213 14.873 15.213v-8c-3.68 0-6.873-3.112-6.873-7.213h-8zm11.676-.316v.543h8v-.543h-8zm0 .543v.282h8v-.282h-8zm6.437.325v-.325h-8v.325h8zm0-.325v-.543h-8v.543h8zm0-.543V8.5h-8v3.798h8zm0-3.798V4.94h-8V8.5h8zM9.071 4.94V8.5h8V4.94h-8zm0 3.56v3.798h8V8.5h-8zM12.29.16a4.781 4.781 0 0 0-4.782 4.78h8a3.219 3.219 0 0 1-3.218 3.22v-8zM9.07 13.123a3.197 3.197 0 0 1 3.198-3.197v8a4.803 4.803 0 0 0 4.803-4.803h-8zM8.65 26.99a2.943 2.943 0 0 1-3.405.607l3.53-7.179c-1.826-.898-4.227-.683-5.857.99L8.65 26.99zM.062 28.92a4.682 4.682 0 0 0 6.708 0l-5.731-5.582a3.318 3.318 0 0 1 4.754 0L.062 28.92zm0-6.533a4.682 4.682 0 0 0 0 6.533l5.731-5.582a3.318 3.318 0 0 1 0 4.63l-5.731-5.58zm22.888-1.393c1.343 1.38.944 3.305-.133 4.248l-5.27-6.018c-1.995 1.748-2.523 5.098-.328 7.352l5.731-5.582zM12.29 8.16a3.219 3.219 0 0 1-3.22-3.22h8c0-2.64-2.14-4.78-4.78-4.78v8zM1.61 25.146c-1.064-.948-1.447-2.862-.114-4.231l5.731 5.581c2.18-2.238 1.675-5.565-.293-7.32l-5.324 5.97zm22.697 3.774a4.682 4.682 0 0 0 0-6.533l-5.732 5.582a3.318 3.318 0 0 1 0-4.63l5.732 5.58zm-6.708 0a4.682 4.682 0 0 0 6.708 0l-5.732-5.582a3.318 3.318 0 0 1 4.755 0L17.6 28.92zM12.268 9.926a3.24 3.24 0 0 1 3.24 3.24h-8a4.76 4.76 0 0 0 4.76 4.76v-8zm9.236 11.538c-1.616-1.66-3.992-1.886-5.813-1.012l3.46 7.212a2.943 2.943 0 0 1-3.378-.62l5.731-5.58z" fill="#fff" mask="url(#a)"/></svg>