<svg fill="none" xmlns="http://www.w3.org/2000/svg" viewBox="0 0 28 22"><path d="M1 5.34c0-.86.52-1.32 1.54-1.38l3.98.02a.52.52 0 0 1 .53.38c.4 1.26.86 2.34 1.37 3.26.5.9 1.17 1.96 1.99 3.15.07.15.18.23.34.23.13 0 .22-.06.3-.18l.07-.28.03-4.35c0-.3-.07-.5-.23-.6-.15-.1-.43-.18-.84-.23-.32-.05-.48-.23-.48-.55 0-.07.01-.12.03-.15.37-1.09 1.44-1.63 3.2-1.63l1.5-.03c.67 0 1.23.16 1.67.48.44.32.67.82.67 1.5v5.71c.12.09.24.13.34.13.27 0 .5-.15.7-.45 1.95-2.58 3-4.31 3.17-5.18 0-.02.01-.06.05-.13.12-.25.33-.47.61-.65.29-.19.53-.31.75-.38a.55.55 0 0 1 .24-.05h4.13l.26.03c.36 0 .63.16.83.47.07.1.12.21.15.33a2.36 2.36 0 0 1 .06.55v.18a6.11 6.11 0 0 1-.94 2.2c-.5.78-1.15 1.62-1.93 2.53-.79.9-1.27 1.5-1.47 1.78-.16.2-.24.39-.24.56 0 .13.07.28.21.45l3.9 4.63c.2.26.31.56.31.88 0 .38-.16.7-.48.95-.32.25-.7.4-1.14.43l-.46.03h-4.05a.85.85 0 0 0-.1 0 .86.86 0 0 1-.1.02c-.4 0-.76-.16-1.1-.48-.13-.13-.96-1.12-2.5-2.97a1.39 1.39 0 0 0-.38-.32 43.69 43.69 0 0 0-.53 2.24l-.08.42a1.4 1.4 0 0 1-1.12 1.06l-.37.02h-2.61c-1.48 0-2.95-.63-4.41-1.9a19.33 19.33 0 0 1-3.96-4.95 47.61 47.61 0 0 1-3.28-7.05A1.92 1.92 0 0 1 1 5.34zm16.01 6.51c-.37 0-.7-.1-1.01-.29a.9.9 0 0 1-.45-.79V5c0-.34-.1-.58-.27-.72-.18-.14-.49-.21-.93-.21l-1.52.05c-.76 0-1.34.12-1.73.37.78.36 1.17.93 1.17 1.71v4.43a1.5 1.5 0 0 1-.53 1.04 1.59 1.59 0 0 1-1.07.42c-.53 0-.94-.24-1.22-.73a26.08 26.08 0 0 1-3.1-5.63l-.23-.66-3.55-.02c-.23 0-.36.01-.38.03-.03.03-.04.1-.04.22 0 .15.01.3.05.48l.56 1.4c1.49 3.64 3.11 6.51 4.86 8.6 1.75 2.1 3.47 3.15 5.16 3.15h2.66c.1 0 .19-.03.24-.09.05-.06.1-.17.13-.34l.06-.25.5-2.21c.15-.3.27-.5.38-.6a.97.97 0 0 1 .69-.28c.43 0 .86.24 1.3.73l2.27 2.71c.14.22.3.33.45.33h4.4c.53 0 .8-.13.8-.38a.47.47 0 0 0-.08-.25l-3.87-4.55c-.3-.35-.45-.73-.45-1.13 0-.4.14-.8.43-1.16.23-.34.68-.9 1.34-1.67a37.63 37.63 0 0 0 1.75-2.19c.5-.68.82-1.3.98-1.85l.08-.33a.37.37 0 0 1-.02-.16.57.57 0 0 0-.03-.19h-4.18c-.27.1-.48.25-.64.45L21.8 6c-.45 1.16-1.6 2.94-3.5 5.36a1.9 1.9 0 0 1-1.3.5z" fill="#666"/></svg>