<svg fill="none" xmlns="http://www.w3.org/2000/svg" viewBox="0 0 28 22"><path d="m17.85 10.8-5.24-3.5a.66.66 0 0 0-1.01.55v6.98a.65.65 0 0 0 1.01.55l5.24-3.5a.65.65 0 0 0 0-1.09zm-4.94 2.8V9.08l3.4 2.27-3.4 2.27zm12.48-8.56a2.4 2.4 0 0 0-1.45-1.63C20.22 1.98 14.25 2 14 2s-6.22-.02-9.94 1.4a2.4 2.4 0 0 0-1.45 1.64 25.36 25.36 0 0 0-.61 6.3c0 3.26.33 5.22.61 6.3a2.4 2.4 0 0 0 1.45 1.63c3.72 1.43 9.69 1.4 9.94 1.4h.08c.75 0 6.31-.04 9.86-1.4a2.4 2.4 0 0 0 1.45-1.64c.28-1.07.61-3.03.61-6.3s-.33-5.22-.61-6.29zM24.12 17.3a1.09 1.09 0 0 1-.65.75c-3.5 1.34-9.4 1.32-9.47 1.32-.07 0-5.98.02-9.47-1.32a1.09 1.09 0 0 1-.65-.75c-.26-1-.57-2.84-.57-5.96s.3-4.96.57-5.97a1.09 1.09 0 0 1 .65-.74C8.02 3.29 13.93 3.3 14 3.3c.07 0 5.98-.02 9.47 1.32a1.1 1.1 0 0 1 .65.74c.27 1 .57 2.85.57 5.97 0 3.12-.3 4.96-.57 5.97z" fill="#666"/></svg>